<svg width="30" height="30" viewBox="0 0 30 30" fill="none" xmlns="http://www.w3.org/2000/svg">
<g clip-path="url(#clip0)">
<path d="M21.4713 13.9366H23.7394V16.2047H21.4713V13.9366Z" fill="#1D1D1D"/>
<path fill-rule="evenodd" clip-rule="evenodd" d="M15.5 27C13.4435 27 11.7764 25.3329 11.7764 23.2764C11.7764 23.0752 11.7924 22.8776 11.8231 22.685H4V20.4169L6.50689 17.91L6.50689 11.5604C6.75506 9.57022 7.69868 7.79022 9.08275 6.45804C9.63343 5.92801 10.2538 5.46887 10.9279 5.09558C12.188 4.39778 13.6356 4 15.1658 4C16.6806 4 18.1044 4.38982 19.3423 5.07462C20.0164 5.44755 20.6354 5.90796 21.184 6.44054C22.5581 7.77461 23.4901 9.56149 23.7394 11.5604L23.7394 12.2085H21.5565L21.5565 11.5604C21.3215 10.1595 20.637 8.91094 19.6563 7.9682C19.1001 7.43347 18.4486 6.99711 17.7298 6.68713C16.9434 6.348 16.0765 6.16012 15.1658 6.16012C14.2328 6.16012 13.3459 6.35726 12.5445 6.71216C11.8304 7.02839 11.184 7.46987 10.6334 8.00874C9.67514 8.9466 9.0067 10.1795 8.77502 11.5604L8.77501 18.8495L7.20761 20.4169H23.0416L21.5565 18.9318V17.9071H23.7394L26.2492 20.4169V22.685H19.1768C19.2076 22.8776 19.2235 23.0752 19.2235 23.2764C19.2235 25.3329 17.5565 27 15.5 27ZM16.7412 23.2764C16.7412 23.9619 16.1855 24.5176 15.5 24.5176C14.8145 24.5176 14.2588 23.9619 14.2588 23.2764C14.2588 23.0623 14.313 22.8609 14.4085 22.685H16.5915C16.687 22.8609 16.7412 23.0623 16.7412 23.2764Z" fill="#1D1D1D"/>
</g>
<defs>
<clipPath id="clip0">
<rect width="30" height="30" fill="white"/>
</clipPath>
</defs>
</svg>
