<svg width="472" height="99" viewBox="0 0 472 99" fill="none" xmlns="http://www.w3.org/2000/svg">
<path d="M307.755 0V84.4328H272.001V0H257.699V99H322.197V0H307.755Z" fill="#ECECEC"/>
<path d="M346.079 14.5672H396.416V0H331.777V99H346.079V56.8543L396.416 56.7128V42.1457L346.079 42.2871V14.5672Z" fill="#ECECEC"/>
<path d="M421.663 14.5672H472V0H407.361V99H421.663V56.8543L472 56.7128V42.1457L421.663 42.2871V14.5672Z" fill="#ECECEC"/>
<path fill-rule="evenodd" clip-rule="evenodd" d="M70.9485 69.0171C68.2844 74.9571 64.4986 80.19 59.7313 84.7157C49.9163 93.9086 37.0166 99 23.2756 99H0V0H23.2756C37.0166 0 49.9163 5.09143 59.7313 14.2843C64.4986 18.81 68.2844 24.1843 70.9485 29.9829C73.6126 36.2057 75.0147 42.7114 75.0147 49.5C75.0147 56.1471 73.6126 62.7943 70.9485 69.0171ZM14.4421 14.85H23.2756C43.7469 14.85 60.2922 30.4071 60.2922 49.5L60.2752 50.5655C59.6775 69.3004 43.3675 84.15 23.2756 84.15H14.4421V14.85Z" fill="#ECECEC"/>
<path fill-rule="evenodd" clip-rule="evenodd" d="M246.691 98.7171V38.8929H219.069V0H163.123V98.7171H246.691ZM177.565 38.8929H204.626V14.5672H177.565V38.8797V38.8929ZM177.565 53.3186V84.15H232.249V53.3186H177.565Z" fill="#ECECEC"/>
<path d="M98.9234 14.5672H149.26V0H84.6216V99H149.26V84.4328H98.9234V56.8543L149.26 56.7128V42.1457L98.9234 42.2871V14.5672Z" fill="#ECECEC"/>
</svg>
