<svg width="30" height="30" viewBox="0 0 30 30" fill="none" xmlns="http://www.w3.org/2000/svg">
<path fill-rule="evenodd" clip-rule="evenodd" d="M26 9.9375H22.0625H21.696L20.3835 6H10.6165L9.304 9.9375H5V19.125H7.625V12.5625H11.196L12.5085 8.625H18.4915L19.804 12.5625H23.375V21.75H10.25V24.375H26V9.9375ZM7.625 24.375V21.75H5V24.375H7.625ZM15.5 20.4375C13.3254 20.4375 11.5625 18.6746 11.5625 16.5C11.5625 14.3254 13.3254 12.5625 15.5 12.5625C17.6746 12.5625 19.4375 14.3254 19.4375 16.5C19.4375 18.6746 17.6746 20.4375 15.5 20.4375ZM16.8125 16.5C16.8125 17.2249 16.2249 17.8125 15.5 17.8125C14.7751 17.8125 14.1875 17.2249 14.1875 16.5C14.1875 15.7751 14.7751 15.1875 15.5 15.1875C16.2249 15.1875 16.8125 15.7751 16.8125 16.5Z" fill="#1D1D1D"/>
</svg>
