<svg width="30" height="30" viewBox="0 0 30 30" fill="none" xmlns="http://www.w3.org/2000/svg">
<path d="M16.3015 17V19.625H13.6765V17H16.3015Z" fill="#1D1D1D"/>
<path fill-rule="evenodd" clip-rule="evenodd" d="M11.8544 16.8413C7.69569 18.0265 4.5475 21.6094 4 26H6.76498C7.2464 23.1304 9.2167 20.7657 11.8544 19.7273V16.8413ZM17.8655 16.8413V19.7273C20.5032 20.7657 22.4735 23.1304 22.9549 26H25.7199C25.1724 21.6094 22.0242 18.0265 17.8655 16.8413Z" fill="#1D1D1D"/>
<path fill-rule="evenodd" clip-rule="evenodd" d="M10.5668 9.30945C10.5668 11.6895 12.4962 13.6189 14.8762 13.6189C17.2562 13.6189 19.1856 11.6895 19.1856 9.30945C19.1856 6.9294 17.2562 5 14.8762 5C12.4962 5 10.5668 6.9294 10.5668 9.30945ZM16.3127 9.30945C16.3127 10.1028 15.6696 10.7459 14.8762 10.7459C14.0829 10.7459 13.4397 10.1028 13.4397 9.30945C13.4397 8.5161 14.0829 7.87296 14.8762 7.87296C15.6696 7.87296 16.3127 8.5161 16.3127 9.30945Z" fill="#1D1D1D"/>
</svg>
