<svg width="30" height="30" viewBox="0 0 30 30" fill="none" xmlns="http://www.w3.org/2000/svg">
<path fill-rule="evenodd" clip-rule="evenodd" d="M19.3299 17.3393L21.8866 19.896L19.896 21.8866L17.3393 19.3299C15.9586 20.3131 14.2697 20.8913 12.4457 20.8913C7.78125 20.8913 4 17.1101 4 12.4457C4 7.78125 7.78125 4 12.4457 4C17.1101 4 20.8913 7.78125 20.8913 12.4457C20.8913 14.2697 20.3131 15.9586 19.3299 17.3393ZM12.4457 18.0761C15.5553 18.0761 18.0761 15.5553 18.0761 12.4457C18.0761 9.33605 15.5553 6.81522 12.4457 6.81522C9.33605 6.81522 6.81522 9.33605 6.81522 12.4457C6.81522 15.5553 9.33605 18.0761 12.4457 18.0761ZM23.792 21.8013L21.8013 23.792L23.792 25.7826L25.7826 23.792L23.792 21.8013Z" fill="#1D1D1D"/>
</svg>
