<svg width="30" height="30" viewBox="0 0 30 30" fill="none" xmlns="http://www.w3.org/2000/svg">
<path fill-rule="evenodd" clip-rule="evenodd" d="M18.5 14.1886H15.875V16.8125C15.875 17.5374 15.2874 18.125 14.5625 18.125H11.9375C11.7028 18.125 11.4801 18.0645 11.283 17.9507C10.8784 17.717 10.625 17.2875 10.625 16.8125V8.9375C10.625 8.21263 11.2126 7.625 11.9375 7.625H14.5625C15.2874 7.625 15.875 8.21263 15.875 8.9375H18.5C18.5 6.76288 16.7371 5 14.5625 5H11.9375C9.76288 5 8 6.76288 8 8.9375V16.8125C8 18.2348 8.76159 19.5258 9.97017 20.2238C10.5637 20.5666 11.2388 20.75 11.9375 20.75H14.5625C16.7371 20.75 18.5 18.9871 18.5 16.8125V14.1886ZM11.9375 16.8125H14.5625V14.1875C14.5625 13.4626 15.1501 12.875 15.875 12.875H18.5C19.2249 12.875 19.8125 13.4626 19.8125 14.1875H22.4375C22.4375 12.0129 20.6746 10.25 18.5 10.25H15.875C13.7004 10.25 11.9375 12.0129 11.9375 14.1875V16.8125ZM19.8125 16.8083H22.4375V19.4375H19.8125V16.8083ZM22.4375 22.0625H19.8125C19.8125 22.7874 19.2249 23.375 18.5 23.375H15.875C15.1501 23.375 14.5625 22.7874 14.5625 22.0625H11.9375C11.9375 24.2371 13.7004 26 15.875 26H18.5C20.6746 26 22.4375 24.2371 22.4375 22.0625Z" fill="#1D1D1D"/>
</svg>
