<svg width="30" height="30" viewBox="0 0 30 30" fill="none" xmlns="http://www.w3.org/2000/svg">
<g clip-path="url(#clip0)">
<path fill-rule="evenodd" clip-rule="evenodd" d="M20.947 7.34523L15 13.2922L9.05303 7.34523L5.65477 10.7435L3.95563 9.04437L9.05303 3.94697L15 9.89393L20.947 3.94697L21.7965 4.79653L20.0974 6.49567L20.947 7.34523ZM26.8939 9.89393L25.1948 11.5931L14.1504 22.6374L5.65477 14.1418L3.95563 15.8409L14.1504 26.0357L28.5931 11.5931L26.8939 9.89393ZM3.95563 12.4426L2.2565 14.1418L0.557368 12.4426L2.2565 10.7435L3.95563 12.4426Z" fill="white"/>
<path d="M21.7965 4.79653L20.0974 6.49567L20.947 7.34523L25.1948 11.5931L26.8939 9.89393L21.7965 4.79653Z" fill="white"/>
</g>
<defs>
<clipPath id="clip0">
<rect width="30" height="30" fill="white"/>
</clipPath>
</defs>
</svg>
