<svg width="30" height="30" viewBox="0 0 30 30" fill="none" xmlns="http://www.w3.org/2000/svg">
<path fill-rule="evenodd" clip-rule="evenodd" d="M15.5 4C10.1038 4 5.65092 8.03922 5.00001 13.2591H7.67334C8.30306 9.5056 11.5675 6.64547 15.5 6.64547C19.4325 6.64547 22.697 9.5056 23.3267 13.2591H26C25.3491 8.03922 20.8963 4 15.5 4ZM16.8227 13.2591H19.4682V15.9046H16.8227V18.5501H14.1773V15.9046H11.5318V13.2591H14.1773V10.6137H16.8227V13.2591ZM5.00001 15.9046H7.67334C8.30306 19.6581 11.5675 22.5183 15.5 22.5183C19.3955 22.5183 22.6924 19.6935 23.3269 15.9046H25.9999C25.9897 15.9861 25.9786 16.0673 25.9665 16.1484C25.2009 21.3021 20.7606 25.1637 15.5 25.1637C10.1038 25.1637 5.65092 21.1245 5.00001 15.9046Z" fill="white"/>
</svg>
