<svg width="30" height="30" viewBox="0 0 30 30" fill="none" xmlns="http://www.w3.org/2000/svg">
<path fill-rule="evenodd" clip-rule="evenodd" d="M5 13.2591C5.65091 8.03922 10.1038 4 15.5 4C20.8962 4 25.3491 8.03922 26 13.2591H23.3267C22.6969 9.5056 19.4325 6.64547 15.5 6.64547C11.5675 6.64547 8.30305 9.5056 7.67333 13.2591H5ZM5 15.9046H7.67333C8.30305 19.6581 11.5675 22.5183 15.5 22.5183C19.3954 22.5183 22.6924 19.6935 23.3269 15.9046H25.9999C25.9897 15.9861 25.9786 16.0673 25.9665 16.1484C25.2009 21.3021 20.7606 25.1637 15.5 25.1637C10.1038 25.1637 5.65091 21.1245 5 15.9046ZM19.4682 15.9046V13.2591H11.5318V15.9046H19.4682Z" fill="white"/>
</svg>
