<svg width="30" height="30" viewBox="0 0 30 30" fill="none" xmlns="http://www.w3.org/2000/svg">
<path fill-rule="evenodd" clip-rule="evenodd" d="M15 5C9.90047 5 5.69248 8.81711 5.07736 13.75H7.60369C8.19879 10.2029 11.2838 7.5 15 7.5C18.7162 7.5 21.8012 10.2029 22.3963 13.75H24.9226C24.3075 8.81711 20.0995 5 15 5ZM16.7678 15L18.5355 16.7678L16.7678 18.5355L15 16.7678L13.2322 18.5355L11.4645 16.7678L13.2322 15L11.4645 13.2322L13.2322 11.4645L15 13.2322L16.7678 11.4645L18.5355 13.2322L16.7678 15ZM5.07736 16.25H7.60369C8.19879 19.7971 11.2837 22.5 15 22.5C18.6812 22.5 21.7969 19.8305 22.3965 16.25H24.9225C24.9129 16.327 24.9024 16.4038 24.891 16.4804C24.1675 21.3507 19.9713 25 15 25C9.90047 25 5.69248 21.1829 5.07736 16.25Z" fill="#CF291D"/>
</svg>
