<svg width="30" height="30" viewBox="0 0 30 30" fill="none" xmlns="http://www.w3.org/2000/svg">
<path fill-rule="evenodd" clip-rule="evenodd" d="M14 17.9062V11.5625H11.375V17.9062C11.375 19.8392 12.942 21.4062 14.875 21.4062C16.808 21.4062 18.375 19.8392 18.375 17.9062V10.6875C18.375 7.54638 15.8286 5 12.6875 5C9.54638 5 7 7.54638 7 10.6875V18.125C7 22.4742 10.5258 26 14.875 26C19.2242 26 22.75 22.4742 22.75 18.125V16.8125H20.125V18.125C20.125 21.0245 17.7745 23.375 14.875 23.375C11.9755 23.375 9.625 21.0245 9.625 18.125V10.6875C9.625 8.99613 10.9961 7.625 12.6875 7.625C14.3789 7.625 15.75 8.99613 15.75 10.6875V17.9062C15.75 18.3895 15.3582 18.7812 14.875 18.7812C14.3918 18.7812 14 18.3895 14 17.9062ZM20.125 14.1875H22.75V11.5625H20.125V14.1875Z" fill="#CF291D"/>
</svg>
